<?xml version="1.0" encoding="utf-8"?>
<!-- Generator: Adobe Illustrator 19.0.0, SVG Export Plug-In . SVG Version: 6.00 Build 0)  -->
<svg version="1.1" id="Layer_1" xmlns="http://www.w3.org/2000/svg" xmlns:xlink="http://www.w3.org/1999/xlink" x="0px" y="0px"
	 viewBox="0 0 181.1 171.7" style="enable-background:new 0 0 181.1 171.7;" xml:space="preserve">
<style type="text/css">
	.st0{fill:#2B3894;}
	.st1{fill:#FFFFFF;}
</style>
<path class="st0" d="M172.6,151.9c0,9-7.3,16.3-16.3,16.3H24.2c-9,0-16.3-7.3-16.3-16.3V19.8c0-9,7.3-16.3,16.3-16.3h132.1
	c9,0,16.3,7.3,16.3,16.3V151.9z"/>
<rect x="134.8" y="18.7" class="st1" width="23.2" height="23.2"/>
<rect x="24.2" y="18.7" class="st1" width="23.2" height="23.2"/>
<rect x="24.2" y="53.5" class="st1" width="23.2" height="92.8"/>
<polygon class="st1" points="59.2,53.5 123.1,53.5 123.1,76.7 82.4,76.7 82.4,88.7 123.1,88.7 123.1,146.4 59.2,146.4 59.2,123.2 
	99.9,123.2 99.9,111.9 59.2,111.9 "/>
<rect x="134.8" y="53.5" class="st1" width="23.2" height="92.8"/>
<line class="st1" x1="134.8" y1="146.4" x2="134.8" y2="76.7"/>
<line class="st1" x1="47.4" y1="123.2" x2="47.4" y2="53.5"/>
</svg>
